Coordinates
version=1
nRows=6
nColumns=63
inDegrees=yes

Units are S.I. units (second, meters, Newtons, ...)
If the header above contains a line with 'inDegrees', this indicates whether rotational values are in degrees (yes) or radians (no).

endheader
time	pelvis_tilt	pelvis_list	pelvis_rotation	pelvis_tx	pelvis_ty	pelvis_tz	hip_flexion_r	hip_adduction_r	hip_rotation_r	knee_angle_r	knee_angle_r_beta	ankle_angle_r	subtalar_angle_r	mtp_angle_r	hip_flexion_l	hip_adduction_l	hip_rotation_l	knee_angle_l	knee_angle_l_beta	ankle_angle_l	subtalar_angle_l	mtp_angle_l	L5_S1_Flex_Ext	L5_S1_Lat_Bending	L5_S1_axial_rotation	L4_L5_Flex_Ext	L4_L5_Lat_Bending	L4_L5_axial_rotation	L3_L4_Flex_Ext	L3_L4_Lat_Bending	L3_L4_axial_rotation	L2_L3_Flex_Ext	L2_L3_Lat_Bending	L2_L3_axial_rotation	L1_L2_Flex_Ext	L1_L2_Lat_Bending	L1_L2_axial_rotation	L1_T12_Flex_Ext	L1_T12_Lat_Bending	L1_T12_axial_rotation	Abs_r3	Abs_r2	Abs_r1	Abs_t1	Abs_t2	neck_flexion	neck_bending	neck_rotation	arm_flex_r	arm_add_r	arm_rot_r	elbow_flex_r	pro_sup_r	wrist_flex_r	wrist_dev_r	arm_flex_l	arm_add_l	arm_rot_l	elbow_flex_l	pro_sup_l	wrist_flex_l	wrist_dev_l
6.750000	0.427884	-2.320884	78.721706	0.184733	0.867830	0.521718	6.586486	7.039924	1.415533	15.454880	0.269739	40.759065	-7.357022	0.000000	2.449355	-1.914329	20.967329	7.948666	0.138730	38.397583	-13.738572	0.000000	0.400773	0.622654	-1.499894	0.744276	0.828129	-1.593638	0.658430	1.513920	-1.593638	0.458044	1.513920	-1.312407	0.372158	1.269715	-1.218664	0.229002	0.964490	-1.124921	2.862684	7.043582	-8.341962	0.000000	0.000000	28.326896	7.251732	6.896250	3.909605	-18.744358	45.871754	22.641947	63.870992	-11.564297	-1.974597	7.737695	-6.289063	159.606757	0.218431	9.943117	-16.499967	-9.549432
6.775000	0.429317	-2.338546	78.242504	0.183112	0.867977	0.521342	6.890246	6.794341	0.747872	16.046801	0.280070	41.150451	-6.154305	0.000000	2.437205	-1.772874	20.063001	8.218824	0.143446	38.472465	-13.274452	0.000000	0.396263	0.632383	-1.429412	0.735901	0.841069	-1.518750	0.651021	1.537576	-1.518750	0.452889	1.537576	-1.250736	0.367970	1.289556	-1.161397	0.226425	0.979561	-1.072059	2.830470	7.153644	-7.949961	0.000000	0.000000	28.328185	7.495960	6.833959	4.093418	-18.670027	48.223024	22.021756	61.363844	-11.659938	-2.569147	7.676767	-6.420667	155.262917	0.490934	8.022895	-15.617503	-11.279046
6.800000	0.458652	-2.338972	77.704760	0.181821	0.868251	0.520895	7.109634	6.613398	0.306809	16.545981	0.288782	41.443756	-5.151943	0.000000	2.331869	-1.688833	19.132080	8.422304	0.146997	38.490337	-12.845439	0.000000	0.390107	0.646633	-1.354475	0.724468	0.860022	-1.439130	0.640907	1.572223	-1.439130	0.445854	1.572223	-1.185165	0.362254	1.318614	-1.100511	0.222907	1.001634	-1.015856	2.786497	7.314841	-7.533183	0.000000	0.000000	28.328762	7.795874	6.806777	4.502176	-18.598652	52.327572	21.182307	56.952866	-11.625433	-3.526141	7.724368	-6.535888	151.498100	0.949688	6.235437	-14.728282	-12.912826
6.825000	0.518970	-2.328670	77.170649	0.180821	0.868640	0.520352	7.246870	6.501971	0.056250	16.945467	0.295754	41.642047	-4.393362	0.000000	2.161316	-1.666515	18.232807	8.581243	0.149771	38.466016	-12.443340	0.000000	0.382249	0.664976	-1.287419	0.709875	0.884418	-1.367883	0.627997	1.616822	-1.367883	0.436873	1.616822	-1.126492	0.354957	1.356019	-1.046028	0.218417	1.030048	-0.965564	2.730368	7.522341	-7.160238	0.000000	0.000000	28.328008	8.172600	6.821890	5.124723	-18.529935	58.042764	20.145256	50.665324	-11.438698	-4.934603	7.855332	-6.652972	148.419084	1.526163	4.596789	-13.885044	-14.347274
6.850000	0.611874	-2.332928	76.590345	0.180126	0.869064	0.519688	7.350839	6.464919	-0.029857	17.284864	0.301678	41.785709	-3.797835	0.000000	1.940620	-1.706578	17.328097	8.678729	0.151472	38.423043	-12.085841	0.000000	0.375151	0.690093	-1.215484	0.696693	0.917824	-1.291452	0.616335	1.677893	-1.291452	0.428760	1.677893	-1.063549	0.348365	1.407238	-0.987581	0.214361	1.068955	-0.911613	2.679665	7.806475	-6.760160	0.000000	0.000000	28.328422	8.534992	6.825612	5.524057	-18.553341	62.516553	19.370525	45.459281	-11.340210	-6.183183	8.029545	-6.760224	145.705822	2.142113	3.453511	-13.085955	-15.532655
6.875000	0.737057	-2.364565	75.982403	0.179731	0.869513	0.518938	7.455367	6.510351	0.029799	17.592755	0.307051	41.876059	-3.395175	0.000000	1.693274	-1.809232	16.466780	8.713032	0.152071	38.367385	-11.799187	0.000000	0.371207	0.722415	-1.144236	0.689369	0.960811	-1.215750	0.609857	1.756479	-1.215750	0.424253	1.756479	-1.001206	0.344703	1.473148	-0.929691	0.212108	1.119020	-0.858177	2.651497	8.172098	-6.363895	0.000000	0.000000	28.329894	8.876816	6.882703	5.890663	-18.632343	66.839712	18.663633	40.271657	-11.185905	-7.525911	8.207842	-6.859015	143.276884	2.773912	2.838259	-12.410150	-16.441939
